<?xml version="1.0" encoding="UTF-8" standalone="no"?>
<svg
   xmlns:dc="http://purl.org/dc/elements/1.1/"
   xmlns:cc="http://creativecommons.org/ns#"
   xmlns:rdf="http://www.w3.org/1999/02/22-rdf-syntax-ns#"
   xmlns:svg="http://www.w3.org/2000/svg"
   xmlns="http://www.w3.org/2000/svg"
   xmlns:sodipodi="http://sodipodi.sourceforge.net/DTD/sodipodi-0.dtd"
   xmlns:inkscape="http://www.inkscape.org/namespaces/inkscape"
   width="10.583334mm"
   height="14.552084mm"
   viewBox="0 0 10.583334 14.552084"
   version="1.1"
   id="svg8"
   inkscape:version="1.0.1 (3bc2e813f5, 2020-09-07)"
   sodipodi:docname="you.svg">
  <defs
     id="defs2" />
  <sodipodi:namedview
     id="base"
     pagecolor="#ffffff"
     bordercolor="#666666"
     borderopacity="1.0"
     inkscape:pageopacity="0.0"
     inkscape:pageshadow="2"
     inkscape:zoom="13.875"
     inkscape:cx="15.000027"
     inkscape:cy="19.999996"
     inkscape:document-units="mm"
     inkscape:current-layer="layer1"
     inkscape:document-rotation="0"
     showgrid="false"
     inkscape:window-width="1366"
     inkscape:window-height="745"
     inkscape:window-x="-8"
     inkscape:window-y="-8"
     inkscape:window-maximized="1" />
  <metadata
     id="metadata5">
    <rdf:RDF>
      <cc:Work
         rdf:about="">
        <dc:format>image/svg+xml</dc:format>
        <dc:type
           rdf:resource="http://purl.org/dc/dcmitype/StillImage" />
        <dc:title />
      </cc:Work>
    </rdf:RDF>
  </metadata>
  <g
     inkscape:label="Capa 1"
     inkscape:groupmode="layer"
     id="layer1"
     transform="translate(-133.64772,-49.435297)">
    <g
       id="g913"
       transform="matrix(0.12516557,0,0,0.11606974,116.91963,43.697355)">
      <path
         style="fill:#fb6e70;stroke-width:0.264583"
         d="M 172.91761,171.6837 C 162.54643,161.11943 153.28012,149.12252 146.83456,137.9145 136.19565,119.41474 131.65242,99.90093 134.4618,84.771713 c 2.58777,-13.935819 11.20521,-25.374309 23.48634,-31.174973 11.95699,-5.647561 24.7345,-5.544481 36.5584,0.294925 4.2049,2.07665 7.59577,4.521182 10.98021,7.915792 12.01528,12.051401 15.58626,29.134103 10.41121,49.804663 -4.90142,19.57756 -17.50101,40.0744 -37.00184,60.19403 l -2.91041,3.00277 z"
         id="path30"
         sodipodi:nodetypes="sssssssscs" />
      <path
         id="path41"
         style="opacity:0.999;fill:#ffffff;fill-rule:evenodd;stroke-width:0.999999"
         d="m 624.11914,-11.996094 c -34.0131,0.01247 -64.31365,12.65177372 -88.64258,36.97461 -33.32589,35.31672 -44.14986,86.042854 -29.33594,129.255864 14.10917,39.2801 46.9217,69.13117 87.28516,79.4082 16.5823,4.22203 39.81624,4.61036 56.79883,0.95117 36.75005,-7.91837 67.81275,-32.03956 84.93359,-65.95508 C 750.75261,137.74696 752.74747,99.829382 740.45312,68 721.92218,20.024363 675.32996,-12.014617 624.11914,-11.996094 Z"
         transform="matrix(0.26458333,0,0,0.26458333,10.885717,61.534527)"
         sodipodi:nodetypes="cccssssc" />
      <g
         id="g890"
         transform="translate(4.2e-4,-1.5305275)"
         style="opacity:0.999">
        <path
           id="path62"
           style="fill:#f9c3ab;fill-opacity:1;fill-rule:evenodd;stroke-width:0.264583"
           d="m 197.43985,93.473236 a 21.515198,21.515198 0 0 1 -21.5152,21.515194 21.515198,21.515198 0 0 1 -21.5152,-21.515194 21.515198,21.515198 0 0 1 21.5152,-21.515198 21.515198,21.515198 0 0 1 21.5152,21.515198 z" />
        <path
           style="fill:#3b484a;stroke-width:0.264583"
           d="m 174.35375,102.03911 c -1.35835,-0.3439 -3.22927,-1.57221 -3.65823,-2.40173 -0.528,-1.02103 -0.50332,-1.385541 0.15002,-2.216131 0.67627,-0.859749 1.98636,-0.936519 2.95668,-0.17326 1.48836,1.170741 3.24403,1.172292 4.3015,0.004 0.62329,-0.688739 2.26177,-0.71378 2.86806,-0.0438 0.24084,0.266121 0.43789,0.89761 0.43789,1.40331 0,2.186451 -4.09719,4.176911 -7.05592,3.427841 z m -10.58772,-3.46476 c -0.87034,-0.35067 -1.14178,-1.09634 -1.14178,-3.13656 0,-1.68374 0.0628,-1.89963 0.69714,-2.39864 0.92479,-0.72744 1.82851,-0.69261 2.62218,0.10106 0.54516,0.54516 0.64943,0.90424 0.64943,2.23651 0,1.975449 -0.37488,2.829341 -1.39887,3.186301 -0.43822,0.152768 -0.80876,0.270208 -0.82342,0.260988 -0.0147,-0.009 -0.28677,-0.121569 -0.60468,-0.249659 z m 22.75416,0 c -0.87033,-0.35067 -1.14177,-1.09634 -1.14177,-3.13656 0,-1.68374 0.0627,-1.89963 0.69714,-2.39864 0.92478,-0.72744 1.8285,-0.69261 2.62217,0.10106 0.54517,0.54516 0.64944,0.90424 0.64944,2.23651 0,1.975449 -0.37488,2.829341 -1.39887,3.186301 -0.43822,0.152768 -0.80876,0.270208 -0.82343,0.260988 -0.0147,-0.009 -0.28677,-0.121569 -0.60468,-0.249659 z"
           id="path26" />
      </g>
    </g>
  </g>
</svg>
